<?xml version="1.0" encoding="utf-8"?>
<!-- Generator: Adobe Illustrator 18.1.0, SVG Export Plug-In . SVG Version: 6.00 Build 0)  -->
<svg version="1.1" xmlns="http://www.w3.org/2000/svg" xmlns:xlink="http://www.w3.org/1999/xlink" x="0px" y="0px"
	 viewBox="0 0 1024 1024" enable-background="new 0 0 1024 1024" xml:space="preserve">
<g id="Layer_1">
	<text transform="matrix(1 0 0 1 -773.2549 1250.8127)" fill="#333333" font-family="'Ubuntu-LightItalic'" font-size="100.2001">BitShares PTS</text>
	<g id="mwmSzE_3_">
		<g>
			<path fill="#00A0C6" d="M-908.2,1559c0,0,0-0.1,0-0.1c7.2-29.7,14.4-59.5,21.6-89.2c0.8-3.4,3.7-5.8,7.1-6.1l34.8-2.7
				c3.4-0.3,6.3-2.7,7.1-6c1.9-7.6,3.7-15.1,5.5-22.8l17.1,0l-1,3.8c-2.7,10.9-5.9,23.1-8.2,32.4c-4.4,18.5-8.9,36.9-13.4,55.4
				c-0.8,3.4-3.7,5.8-7.2,6.1l-34.7,2.4c-3.4,0.2-6.3,2.7-7.2,6c-2,7.9-4.3,16.7-6.3,24.7l-16.5,0.1L-908.2,1559z M-848,1499.4
				c0.1-0.5,0.3-1,0.4-1.6c0.7-3.2,1.4-6.6,1.2-9.9c-0.3-4.7-2.4-9.2-6.8-11.3c-15.6-7.7-22.5,11.4-23.9,23.3
				c-0.9,7.8,0.8,15.5,9.4,17.5C-855.7,1520.4-850.4,1509.1-848,1499.4z"/>
		</g>
	</g>
	<text transform="matrix(1 0 0 1 -800.2549 1527.8652)" font-family="'Ubuntu-LightItalic'" font-size="100.2001">BitShares PTS</text>
</g>
<g id="Layer_3">
</g>
<g id="Layer_2">
	<g>
		<g>
			<path fill="#22A3C2" d="M-2299.4-15.6l-14.4,38.1c-27.5,86.3-59.4,183.3-82.3,257.6c-45.3,146.7-90.9,293.3-136.5,439.9
				c-8.3,26.7-33,45-61,45.2l-281.4,2c-27.8,0.2-52.3,18.2-60.8,44.6c-20.3,63.1-43,132.6-63.5,196.2h-137.9l15.4-39.3
				c0.1-0.4,0.2-0.7,0.3-1c73.2-236.3,146.5-472.6,219.8-708.8c8.3-26.6,32.7-44.9,60.6-45.3l282.5-3.7
				c27.8-0.4,52.3-18.5,60.6-45.1c18.9-60.3,37.2-120.1,56-180.4h-788.2v1024h1024v-1024H-2299.4z"/>
			<path fill="#1B6C7C" d="M-2299.4-15.6l-7.8,20.8l-3.9,10.4c-1.3,3.5-2.7,6.9-3.7,10.5l-13.5,42.3l-27.2,84.6
				c-9.1,28.2-18.1,56.4-27,84.6c-8.9,28.2-17.6,56.5-26.4,84.8L-2514,661.7l-13.1,42.4l-3.3,10.6l-1.6,5.3
				c-0.6,1.8-1.2,3.5-1.9,5.2c-2.8,6.9-6.8,13.3-11.8,18.9c-9.9,11.1-23.8,18.7-38.6,20.9c-3.7,0.6-7.4,0.7-11.1,0.8l-11.1,0.1
				l-22.2,0.2l-177.6,1.3l-44.4,0.3l-22.2,0.2c-3.7,0-7.4,0.2-11,0.8c-0.9,0.1-1.8,0.3-2.7,0.5l-2.7,0.6c-1.8,0.4-3.5,1-5.3,1.5
				c-13.9,4.7-26.1,14.3-33.9,26.7c-1,1.6-1.8,3.2-2.7,4.8c-0.8,1.7-1.6,3.3-2.3,5c-0.6,1.7-1.3,3.4-1.9,5.2l-1.7,5.3l-6.8,21.1
				l-54.6,169l-0.1,0.5l-0.5,0l-137.9,0l-1,0l0.4-1l8.1-20.6l4-10.3l2-5.2l1-2.6l0.2-0.6l0.2-0.7l0.4-1.3l13.1-42.3l26.2-84.7
				l52.5-169.4l105-338.7l13.1-42.3l6.6-21.2l1.6-5.3l0.8-2.6l0.4-1.3l0.5-1.3c0.6-1.7,1.1-3.5,2-5.2c0.8-1.7,1.5-3.5,2.5-5.1
				c7.1-13.2,18.8-23.9,32.7-29.5c6.9-2.8,14.4-4.5,21.8-4.8c1.9-0.1,3.7-0.1,5.6-0.2l5.5-0.1l11.1-0.1l177.3-2.3l44.3-0.6l22.2-0.3
				l11.1-0.1l5.5-0.1l1.4,0c0.2,0,0.5,0,0.7,0l0.7,0l2.8-0.1c7.2-0.5,14.4-2.2,21.1-5.2c6.7-2.9,12.8-7,18.1-12
				c5.3-5,9.7-10.9,13-17.4c0.8-1.6,1.5-3.3,2.2-5c0.6-1.7,1.2-3.4,1.8-5.2l3.3-10.6l52.5-169.3l0.9,1.2l-788.2,0l1-1l-0.1,1024
				l-0.9-0.9l1024,0.3l-0.6,0.6l0.5-1024l0.1,0.1L-2299.4-15.6z M-2299.4-15.6l93.3-0.1h0.1v0.1l0.5,1024l0,0.6l-0.6,0l-1024,0.3
				l-0.9,0v-0.9l-0.1-1024l0-1l1,0l788.2,0h1.3l-0.4,1.2l-52.6,169.3l-3.3,10.6c-0.6,1.8-1.2,3.5-1.9,5.3c-0.8,1.7-1.5,3.4-2.3,5.1
				c-3.4,6.7-8,12.8-13.4,17.9c-5.4,5.1-11.8,9.4-18.6,12.4c-6.8,3-14.3,4.8-21.7,5.3l-2.8,0.1l-0.7,0c-0.3,0-0.5,0-0.7,0l-1.4,0
				l-5.5,0.1l-11.1,0.1l-22.2,0.3l-44.3,0.6l-177.3,2.3l-11.1,0.1l-5.5,0.1c-1.8,0-3.7,0-5.5,0.2c-7.3,0.3-14.5,1.9-21.2,4.6
				c-13.5,5.4-25,15.8-31.8,28.7c-0.9,1.6-1.6,3.2-2.4,4.9c-0.8,1.6-1.3,3.4-2,5.1l-0.4,1.3l-0.4,1.3l-0.8,2.6l-1.6,5.3l-6.6,21.2
				l-13.1,42.3l-105.1,338.7L-3081,840l-26.3,84.7l-13.1,42.3l-0.4,1.3l-0.2,0.7l-0.3,0.7l-1,2.6l-2,5.2l-4,10.3l-8.1,20.6l-0.7-1
				l137.9,0l-0.6,0.5l54.7-169l6.8-21.1l1.7-5.3c0.6-1.8,1.3-3.5,1.9-5.3c0.7-1.7,1.5-3.4,2.3-5.1c0.9-1.6,1.8-3.3,2.8-4.9
				c7.9-12.7,20.3-22.5,34.5-27.2c1.8-0.5,3.6-1.1,5.4-1.5l2.7-0.6c0.9-0.2,1.8-0.4,2.8-0.5c3.7-0.6,7.4-0.7,11.1-0.8l22.2-0.1
				l44.4-0.3l177.6-1.2l22.2-0.1l11.1-0.1c3.7,0,7.4-0.2,11-0.8c14.6-2.1,28.2-9.6,38-20.5c4.9-5.5,8.9-11.8,11.7-18.6
				c0.6-1.7,1.3-3.5,1.9-5.2l1.6-5.3l3.3-10.6l13.2-42.4l105.5-339.3c8.8-28.3,17.5-56.6,26.5-84.8c8.9-28.2,18-56.4,27.1-84.6
				l27.3-84.5l13.6-42.3c1-3.6,2.5-7,3.7-10.5l3.9-10.4L-2299.4-15.6z"/>
		</g>
		<g>
			<path fill="#22A3C2" d="M-2840.6,508.7c-11.1,62.8-1.6,125.1,67,146.4c95.2,29.5,143.6-59.3,168.1-136.4
				c1.3-4.2,2.6-8.3,3.8-12.4c7.5-25.9,14.5-52.2,14.6-79.2c0.3-37.9-15-75.2-48.9-94.6C-2758.1,262.5-2823.7,413.4-2840.6,508.7z"
				/>
			<path fill="#1B6C7C" d="M-2840.6,508.7c0,0-0.2,0.9-0.4,2.7c-0.1,0.9-0.3,2-0.5,3.3c-0.2,1.3-0.4,2.8-0.7,4.6
				c-0.5,3.5-1,7.7-1.4,12.8c-0.4,5-0.8,10.8-0.8,17.4c0,6.5,0.3,13.7,1.3,21.5c1,7.8,2.7,16.1,5.7,24.7c0.7,2.2,1.6,4.3,2.5,6.4
				c0.5,1.1,1,2.1,1.5,3.2c0.2,0.5,0.5,1.1,0.7,1.6c0.3,0.5,0.6,1.1,0.8,1.6c2.1,4.3,4.9,8.5,7.9,12.6c0.8,1,1.6,2,2.4,3
				c0.8,1,1.7,1.9,2.6,2.9c0.8,1,1.8,1.9,2.7,2.9l1.4,1.4c0.5,0.5,0.9,0.9,1.5,1.4c3.9,3.6,8.3,6.9,13,9.9c4.7,3,9.8,5.5,15.1,7.9
				c1.3,0.5,2.7,1.1,4.1,1.6c0.7,0.3,1.4,0.5,2,0.8l2.1,0.7c1.4,0.5,2.8,1,4.2,1.4c1.4,0.4,2.9,0.8,4.3,1.2
				c11.6,3.1,24,4.9,36.7,4.3c1.6-0.2,3.2-0.3,4.8-0.5l2.4-0.2l2.4-0.4c1.6-0.3,3.2-0.6,4.8-0.8c1.6-0.4,3.1-0.8,4.7-1.2l2.4-0.6
				l2.3-0.8c1.6-0.5,3.1-1,4.7-1.6c3-1.3,6.1-2.5,9.1-4.1l2.2-1.1l1.1-0.6l1.1-0.7c1.4-0.9,2.9-1.7,4.3-2.6c1.4-0.9,2.8-1.9,4.2-2.9
				l2.1-1.5l2-1.6c5.4-4.1,10.4-8.9,15.2-14c1.2-1.3,2.3-2.6,3.5-3.9c1.1-1.3,2.2-2.7,3.4-4l1.7-2l1.6-2.1c1.1-1.4,2.1-2.8,3.2-4.2
				c4.1-5.8,8-11.7,11.6-17.9c3.6-6.2,7-12.5,10.1-19.1c1.6-3.2,3.1-6.6,4.6-9.9c1.4-3.3,2.9-6.7,4.3-10.1
				c5.5-13.5,10.3-27.5,14.5-41.7c4.2-14.2,8.2-28.5,11.2-43.1c3-14.5,4.9-29.3,4.6-44l0-2.8c0-0.9-0.1-1.8-0.2-2.7
				c-0.1-1.8-0.2-3.7-0.4-5.5l-0.7-5.5c-0.2-1.8-0.6-3.6-0.9-5.4c-0.2-0.9-0.3-1.8-0.5-2.7l-0.6-2.7c-0.4-1.8-0.8-3.6-1.4-5.3
				c-0.5-1.7-1-3.5-1.6-5.2l-1.9-5.1c-2.7-6.7-6.1-13.2-10-19.2c-4-6-8.8-11.4-13.9-16.3c-1.3-1.2-2.7-2.3-4-3.5
				c-1.4-1.1-2.8-2.1-4.2-3.2c-0.7-0.5-1.4-1.1-2.1-1.6l-2.2-1.4l-2.2-1.4l-1.1-0.7l-1.1-0.6c-1.6-0.9-3.1-1.7-4.6-2.6
				c-1.6-0.8-3.1-1.6-4.7-2.4c-3.2-1.5-6.3-3-9.6-4.2c-12.9-5.2-26.4-8.2-39.8-8.2c-13.4-0.1-26.4,3-37.9,8.4
				c-11.6,5.4-21.6,12.9-30.4,21.1c-8.7,8.3-16.1,17.3-22.6,26.4c-6.4,9.1-11.9,18.3-16.6,27.3c-4.7,9-8.8,17.8-12.3,26.1
				c-7,16.7-11.9,31.8-15.5,44.3c-3.6,12.5-5.8,22.5-7.2,29.3c-0.7,3.4-1.2,6-1.5,7.8C-2840.4,507.8-2840.6,508.7-2840.6,508.7z
				 M-2840.6,508.7c0,0,0.2-0.9,0.5-2.7c0.3-1.8,0.8-4.4,1.5-7.8c1.4-6.8,3.6-16.8,7.2-29.4c3.6-12.5,8.4-27.6,15.4-44.4
				c3.5-8.4,7.5-17.2,12.2-26.2c4.7-9,10.2-18.3,16.5-27.4c6.4-9.1,13.8-18.3,22.5-26.6c8.7-8.3,18.8-15.9,30.4-21.4
				c11.6-5.5,24.7-8.7,38.3-8.8c13.5-0.1,27.3,2.9,40.3,8.1c6.5,2.6,13,5.6,19.1,9.1l1.2,0.6l1.1,0.7l2.3,1.4l2.3,1.4
				c0.8,0.5,1.5,1,2.2,1.6c1.4,1.1,2.9,2.1,4.3,3.2c1.4,1.2,2.7,2.4,4.1,3.6c5.3,4.9,10.1,10.5,14.2,16.5c4,6.1,7.5,12.7,10.2,19.5
				c0.6,1.7,1.3,3.5,1.9,5.2c0.6,1.8,1.1,3.5,1.6,5.3c0.6,1.8,1,3.6,1.4,5.4l0.7,2.7c0.2,0.9,0.4,1.8,0.5,2.7c0.3,1.8,0.7,3.7,1,5.5
				l0.7,5.5c0.2,1.9,0.3,3.7,0.4,5.6c0.1,0.9,0.2,1.9,0.2,2.8l0.1,2.8c0.3,14.9-1.6,29.9-4.6,44.5c-3.1,14.6-7.1,29-11.4,43.2
				c-4.2,14.2-9.1,28.2-14.7,41.8c-1.4,3.4-2.9,6.7-4.3,10.1c-1.5,3.3-3,6.7-4.7,9.9c-3.2,6.6-6.6,12.9-10.3,19.2
				c-3.7,6.2-7.6,12.2-11.8,17.9c-1.1,1.4-2.2,2.8-3.2,4.2l-1.6,2.1l-1.7,2c-1.1,1.3-2.2,2.7-3.4,4c-1.2,1.3-2.4,2.6-3.6,3.9
				c-4.9,5-9.9,9.9-15.4,14l-2,1.6l-2.1,1.5c-1.4,1-2.8,2-4.2,2.9c-1.5,0.9-2.9,1.7-4.4,2.6l-1.1,0.7l-1.1,0.6l-2.3,1.1
				c-3,1.6-6.1,2.8-9.2,4.1c-1.6,0.6-3.2,1.1-4.7,1.6l-2.4,0.8l-2.4,0.6c-1.6,0.4-3.2,0.8-4.8,1.2c-1.6,0.3-3.2,0.5-4.8,0.8
				l-2.4,0.4l-2.4,0.2c-1.6,0.1-3.2,0.3-4.8,0.4c-12.8,0.6-25.4-1.3-37-4.5c-1.4-0.4-2.9-0.8-4.3-1.2c-1.4-0.5-2.8-1-4.2-1.4
				l-2.1-0.7c-0.7-0.3-1.4-0.5-2.1-0.8c-1.4-0.5-2.7-1.1-4.1-1.6c-5.3-2.4-10.4-5-15.1-8c-4.7-3.1-9.1-6.3-13-10
				c-3.9-3.7-7.5-7.5-10.5-11.6c-3-4.1-5.7-8.3-7.8-12.6c-0.3-0.5-0.6-1.1-0.8-1.6c-0.2-0.5-0.5-1.1-0.7-1.6c-0.5-1.1-1-2.1-1.5-3.2
				c-0.8-2.2-1.8-4.3-2.4-6.5c-2.9-8.6-4.7-17-5.6-24.7c-1-7.8-1.3-15-1.2-21.5c0.1-6.5,0.4-12.3,0.8-17.4c0.5-5,1-9.3,1.5-12.8
				c0.3-1.7,0.5-3.3,0.7-4.6c0.2-1.3,0.4-2.4,0.6-3.3C-2840.7,509.6-2840.6,508.7-2840.6,508.7z"/>
		</g>
	</g>
	<g>
		<path fill="#22A3C2" d="M-911.7,993.2c56.5-233.3,113-466.7,169.5-700c6.4-26.3,29-45.5,55.9-47.6l273.4-20.9
			c26.9-2.1,49.5-21.2,55.9-47.4c14.5-59.3,28.6-118.1,43-177.5h-748.2v1024h142l8.2-29.7C-911.8,993.9-911.7,993.5-911.7,993.2z"/>
		<path fill="#22A3C2" d="M-38.1,0H-180l-7.2,28.4c-21.4,85.3-46.3,181.2-64,254.5c-34.9,144.9-70.1,289.6-105.3,434.4
			c-6.4,26.4-29.2,45.6-56.3,47.5L-685.3,784c-26.9,1.9-49.5,20.8-56.1,46.9c-15.7,62.1-33.4,130.4-49.2,193h752.5V0z"/>
		<path fill="#22A3C2" d="M-593.9,669.2c94,22.8,135.5-66.2,154.4-142.4c1-4.1,2-8.2,2.9-12.2c5.7-25.5,10.8-51.5,9.3-77.6
			c-2.1-36.7-19.1-71.9-53.1-88.7c-122.6-60.3-176.9,89.8-187.4,183.2C-674.7,593-661.7,652.8-593.9,669.2z"/>
	</g>
	<g>
		<path fill="#22A3C2" d="M478.3,632.9c72.3,17.5,104.2-50.9,118.8-109.5c0.8-3.2,1.5-6.3,2.2-9.4c4.4-19.6,8.3-39.6,7.2-59.6
			c-1.6-28.2-14.7-55.3-40.9-68.2c-94.2-46.4-136,69.1-144.1,140.9C416.2,574.3,426.2,620.2,478.3,632.9z"/>
		<path fill="#22A3C2" d="M407.3,307.2l210.2-16c20.7-1.6,38.1-16.3,43-36.4c10.5-42.8,20.6-85.3,31.1-128.1
			C637,101.2,576.2,87,512,87C277.3,87,87,277.3,87,512c0,133,61.1,251.8,156.8,329.7c40.2-166,80.4-331.9,120.6-497.9
			C369.2,323.6,386.6,308.8,407.3,307.2z"/>
		<path fill="#22A3C2" d="M780.4,182.4c-13.6,53.6-27.8,108.9-38.5,153.5c-26.8,111.4-53.9,222.7-81,334.1
			c-4.9,20.3-22.4,35.1-43.3,36.6l-209.5,14.7c-20.7,1.5-38.1,16-43.2,36.1c-11.3,44.5-23.9,93.3-35.4,138.7
			C384.8,922.3,446.7,937,512,937c234.7,0,425-190.3,425-425C937,379,876,260.3,780.4,182.4z"/>
	</g>
	<g>
		<path fill="#00A0C6" d="M-867.1,1236.4c10.9,2.6,15.7-7.7,17.9-16.5c0.1-0.5,0.2-1,0.3-1.4c0.7-3,1.3-6,1.1-9
			c-0.2-4.3-2.2-8.4-6.2-10.3c-14.2-7-20.6,10.4-21.8,21.3C-876.5,1227.6-875,1234.5-867.1,1236.4z"/>
		<path fill="#00A0C6" d="M-877.9,1187.2l31.8-2.4c3.1-0.2,5.7-2.5,6.5-5.5c1.6-6.5,3.1-12.9,4.7-19.4c-8.2-3.8-17.4-6-27.1-6
			c-35.5,0-64.2,28.8-64.2,64.2c0,20.1,9.2,38,23.7,49.8c6.1-25.1,12.1-50.2,18.2-75.2C-883.6,1189.7-881,1187.5-877.9,1187.2z"/>
		<path fill="#00A0C6" d="M-821.5,1168.4c-2.1,8.1-4.2,16.5-5.8,23.2c-4.1,16.8-8.1,33.7-12.2,50.5c-0.7,3.1-3.4,5.3-6.5,5.5
			l-31.7,2.2c-3.1,0.2-5.8,2.4-6.5,5.5c-1.7,6.7-3.6,14.1-5.3,21c8.4,4,17.7,6.2,27.6,6.2c35.5,0,64.2-28.8,64.2-64.2
			C-797.8,1198.1-807.1,1180.1-821.5,1168.4z"/>
	</g>
	<g>
		<path d="M478.3-443.1c72.3,17.5,104.2-50.9,118.8-109.5c0.8-3.2,1.5-6.3,2.2-9.4c4.4-19.6,8.3-39.6,7.2-59.6
			c-1.6-28.2-14.7-55.3-40.9-68.2c-94.2-46.4-136,69.1-144.1,140.9C416.2-501.7,426.2-455.8,478.3-443.1z"/>
		<path d="M407.3-768.8l210.2-16c20.7-1.6,38.1-16.3,43-36.4c10.5-42.8,20.6-85.3,31.1-128.1C637-974.8,576.2-989,512-989
			C277.3-989,87-798.7,87-564c0,133,61.1,251.8,156.8,329.7c40.2-166,80.4-331.9,120.6-497.9C369.2-752.4,386.6-767.2,407.3-768.8z"
			/>
		<path d="M780.4-893.6c-13.6,53.6-27.8,108.9-38.5,153.5c-26.8,111.4-53.9,222.7-81,334.1c-4.9,20.3-22.4,35.1-43.3,36.6
			l-209.5,14.7c-20.7,1.5-38.1,16-43.2,36.1c-11.3,44.5-23.9,93.3-35.4,138.7C384.8-153.7,446.7-139,512-139
			c234.7,0,425-190.3,425-425C937-697,876-815.7,780.4-893.6z"/>
	</g>
	<g id="mwmSzE_1_">
		<g>
			<path fill="#FFFFFF" d="M-911.9-81.7c0.1-0.4,0.2-0.7,0.3-1c56.5-233.3,113-466.7,169.5-700c6.4-26.3,29-45.5,55.9-47.6
				l273.4-20.9c26.9-2.1,49.5-21.2,55.9-47.4c14.6-59.7,28.7-118.9,43.3-178.6l133.9-0.2l-7.6,29.7c-21.4,85.3-46.3,181.2-64,254.5
				c-34.9,144.9-70.1,289.6-105.3,434.4c-6.4,26.4-29.2,45.6-56.3,47.5L-685.3-292c-26.9,1.9-49.5,20.8-56.1,46.9
				c-15.8,62.4-33.6,131-49.5,193.9l-129.7,0.5L-911.9-81.7z M-439.5-549.2c1-4.1,2-8.2,2.9-12.2c5.7-25.5,10.8-51.5,9.3-77.6
				c-2.1-36.7-19.1-71.9-53.1-88.7c-122.6-60.3-176.9,89.8-187.4,183.2c-6.9,61.6,6.1,121.3,73.9,137.7
				C-499.9-384-458.4-473.1-439.5-549.2z"/>
		</g>
	</g>
</g>
</svg>
