<?xml version="1.0" encoding="utf-8"?>
<!-- Generator: Adobe Illustrator 18.1.0, SVG Export Plug-In . SVG Version: 6.00 Build 0)  -->
<svg version="1.1" id="Ebene_1" xmlns="http://www.w3.org/2000/svg" xmlns:xlink="http://www.w3.org/1999/xlink" x="0px" y="0px"
	 viewBox="0 0 6912 2736" enable-background="new 0 0 6912 2736" xml:space="preserve">
<g>
	<path fill="#FFFFFF" d="M3357.4,1721.9c211.7,51.3,305-149.1,347.7-320.6c2.3-9.3,4.5-18.5,6.5-27.6c12.8-57.4,24.3-115.9,21-174.6
		c-4.6-82.7-43.1-161.9-119.6-199.6c-275.9-135.8-398.3,202.2-421.9,412.4C3175.5,1550.5,3204.9,1684.9,3357.4,1721.9z"/>
	<path fill="#FFFFFF" d="M3149.6,768.5l615.5-47c60.6-4.6,111.4-47.6,125.8-106.6c30.7-125.4,60.4-249.8,90.9-375.1
		c-159.7-74.6-337.9-116.2-525.8-116.2c-687.3,0-1244.4,557.1-1244.4,1244.4c0,389.4,178.9,737.1,459,965.3
		c117.6-485.9,235.3-971.8,353-1457.7C3038,816.4,3088.9,773.1,3149.6,768.5z"/>
	<path fill="#FFFFFF" d="M4241.7,403c-39.8,156.9-81.4,318.9-112.8,449.3c-78.6,326.1-157.8,652.1-237,978.1
		c-14.4,59.5-65.7,102.8-126.7,107l-613.4,43.1c-60.6,4.3-111.5,46.8-126.4,105.7c-33,130.4-69.9,273-103.6,406
		c161.9,77.1,343,120.2,534.3,120.2c687.3,0,1244.4-557.1,1244.4-1244.4C4700.4,978.7,4521.6,631.2,4241.7,403z"/>
</g>
</svg>
